<svg xmlns="http://www.w3.org/2000/svg" xmlns:xlink="http://www.w3.org/1999/xlink" version="1.1" viewBox="0 0 172 172"><g fill="none" fill-rule="nonzero" stroke="none" stroke-width="1" stroke-linecap="butt" stroke-linejoin="miter" stroke-miterlimit="10" stroke-dasharray="" stroke-dashoffset="0" style="mix-blend-mode: normal"><path d="M0,172v-172h172v172z" fill="none"></path><g fill="#666666"><g><path d="M86,16.125c-38.52783,0 -69.875,31.34717 -69.875,69.875c0,38.52783 31.34717,69.875 69.875,69.875c38.52783,0 69.875,-31.34717 69.875,-69.875c0,-38.52783 -31.34717,-69.875 -69.875,-69.875zM86,26.875c32.71192,0 59.125,26.41309 59.125,59.125c0,32.71192 -26.41308,59.125 -59.125,59.125c-32.71191,0 -59.125,-26.41308 -59.125,-59.125c0,-32.71191 26.41309,-59.125 59.125,-59.125zM80.625,59.125v21.5h-21.5v10.75h21.5v21.5h10.75v-21.5h21.5v-10.75h-21.5v-21.5z"></path></g></g></g></svg>