<svg xmlns="http://www.w3.org/2000/svg" xmlns:xlink="http://www.w3.org/1999/xlink" version="1.1" viewBox="0 0 172 172"><g fill="none" fill-rule="nonzero" stroke="none" stroke-width="1" stroke-linecap="butt" stroke-linejoin="miter" stroke-miterlimit="10" stroke-dasharray="" stroke-dashoffset="0" font-family="none" font-weight="none" font-size="none" text-anchor="none" style="mix-blend-mode: normal"><path d="M0,172v-172h172v172z" fill="none"/><g fill="#1abc9c"><g id="surface1"><path d="M26.875,26.875v118.25h40.64844l14.61328,14.61328l3.86328,3.69531l3.86328,-3.69531l14.61328,-14.61328h40.64844v-118.25zM37.625,37.625h96.75v96.75h-34.43359l-1.67969,1.51172l-12.26172,12.26172l-12.26172,-12.26172l-1.67969,-1.51172h-34.43359zM53.75,59.125v10.75h10.75v-10.75zM75.25,59.125v10.75h43v-10.75zM53.75,80.625v10.75h10.75v-10.75zM75.25,80.625v10.75h43v-10.75zM53.75,102.125v10.75h10.75v-10.75zM75.25,102.125v10.75h43v-10.75z"/></g></g></g></svg>