<svg width="56" height="55" viewBox="0 0 56 55" fill="none" xmlns="http://www.w3.org/2000/svg">
<path d="M1.29419 19.6454C2.87151 14.5797 5.90567 10.0798 10.0251 6.69676C14.1444 3.31375 19.1702 1.19457 24.4868 0.598724C27.9628 5.56997 31.4658 10.5225 34.9203 15.5018C35.5556 16.4083 36.2401 17.28 36.9709 18.1129C37.0329 12.7438 36.8497 7.36942 37.0572 2.00571C40.4827 3.18689 43.6348 5.03595 46.3274 7.44378C49.02 9.85161 51.1985 12.7694 52.7344 16.0251C54.6095 19.9446 55.5163 24.2499 55.38 28.5853C55.2436 32.9208 54.0679 37.1618 51.9501 40.958C49.8324 44.7542 46.8332 47.9966 43.2006 50.4173C39.568 52.838 35.4061 54.3674 31.059 54.8793C26.7772 49.1257 22.9751 43.0225 18.5424 37.3811C18.4023 42.7475 18.6475 48.1192 18.4212 53.4883C11.716 51.1194 6.19219 46.278 3.00099 39.9732C-0.190217 33.6684 -0.802613 26.3865 1.29148 19.6454H1.29419ZM18.502 18.4973C18.502 24.6558 18.502 30.8177 18.502 36.9833C24.6673 36.9833 30.8299 37.0233 36.9952 36.9539C36.9556 30.8115 36.9556 24.6709 36.9952 18.532C30.8407 18.3291 24.67 18.3985 18.5047 18.4973H18.502Z" fill="#F20000"/>
</svg>
