<svg width="129" height="49" viewBox="0 0 129 49" fill="none" xmlns="http://www.w3.org/2000/svg">
<path opacity="0.94" d="M123.281 0.154202C124.145 -0.0718523 125.06 -0.0172945 125.89 0.309771C126.72 0.636836 127.421 1.21896 127.888 1.96959C128.355 2.72022 128.564 3.59929 128.483 4.47615C128.403 5.35302 128.037 6.18087 127.44 6.83664C126.844 7.49241 126.049 7.94109 125.173 8.116C124.296 8.29091 123.386 8.18271 122.578 7.80749C121.769 7.43226 121.105 6.81004 120.684 6.0333C120.263 5.25656 120.108 4.36678 120.241 3.49621C120.363 2.70823 120.715 1.97229 121.255 1.37866C121.795 0.785028 122.499 0.359486 123.281 0.154202ZM121.322 2.25445C120.833 3.0323 120.669 3.9671 120.866 4.86154C121.063 5.75598 121.605 6.54005 122.378 7.04823C123.028 7.43965 123.781 7.63205 124.542 7.60096C125.303 7.56988 126.037 7.31672 126.652 6.87365C125.991 6.24019 125.405 5.53569 124.905 4.77341C124.541 4.32186 123.881 4.51877 123.379 4.46101C123.353 5.17597 123.344 5.89092 123.353 6.60588H122.75C122.628 4.99789 122.679 3.38202 122.719 1.77402C123.722 1.70277 124.73 1.72827 125.728 1.85015C126.043 1.94898 126.306 2.16403 126.463 2.45016C126.62 2.73628 126.659 3.07122 126.57 3.38463C126.489 3.9425 125.896 4.15253 125.474 4.42031C126.004 5.08139 126.5 5.76834 126.96 6.47855C127.279 6.13665 127.526 5.73578 127.687 5.29916C127.847 4.86254 127.919 4.39884 127.896 3.93492C127.874 3.47099 127.758 3.01606 127.556 2.59647C127.354 2.17688 127.069 1.80096 126.718 1.49049C126.328 1.15508 125.869 0.906515 125.373 0.761775C124.877 0.617034 124.354 0.579518 123.842 0.651793C123.329 0.724069 122.839 0.904438 122.403 1.18057C121.968 1.4567 121.598 1.82211 121.32 2.25182L121.322 2.25445ZM123.363 2.35552C123.363 2.86745 123.363 3.37808 123.363 3.89001C124.063 3.94536 124.768 3.90115 125.456 3.75874C125.588 3.70589 125.701 3.61725 125.783 3.50322C125.865 3.3892 125.912 3.25451 125.918 3.11501C125.925 2.97552 125.892 2.83699 125.821 2.71571C125.751 2.59442 125.647 2.49544 125.522 2.43035C124.811 2.2938 124.084 2.26766 123.365 2.35289L123.363 2.35552Z" fill="#6A6B6E"/>
<path opacity="0.94" d="M70.0678 39.3826C70.5105 38.9761 71.037 38.6688 71.6112 38.4817C72.1854 38.2946 72.7938 38.232 73.3947 38.2984C73.9957 38.3648 74.575 38.5584 75.0931 38.8662C75.6112 39.1739 76.0559 39.5885 76.3967 40.0815C76.8463 40.8574 77.0333 41.7546 76.9306 42.6427C76.8279 43.5307 76.4409 44.3633 75.8258 45.0193C76.1396 45.3954 76.4481 45.7793 76.7488 46.175C76.414 46.2389 76.0684 46.221 75.7423 46.1228C75.4161 46.0246 75.1193 45.849 74.8778 45.6114C74.179 45.9115 73.4157 46.0358 72.6563 45.9731C71.8969 45.9104 71.1652 45.6627 70.5266 45.2522C70.0626 44.9267 69.6771 44.5043 69.3973 44.015C69.1175 43.5258 68.9504 42.9816 68.9078 42.4213C68.8653 41.8611 68.9483 41.2984 69.1511 40.7734C69.3539 40.2485 69.6713 39.774 70.0809 39.3839L70.0678 39.3826ZM70.7244 40.2299C70.4591 40.5114 70.2561 40.8443 70.1282 41.2074C70.0004 41.5705 69.9504 41.956 69.9815 42.3392C70.0126 42.7224 70.1242 43.095 70.309 43.4334C70.4939 43.7718 70.7481 44.0685 71.0553 44.3047C71.4987 44.6107 72.0058 44.8148 72.5394 44.9021C73.0731 44.9895 73.6197 44.9579 74.1394 44.8097C73.6423 44.1928 73.103 43.6098 72.6151 42.9877C73.0169 42.9761 73.4188 43.0035 73.815 43.0696C74.249 43.3935 74.6548 43.7527 75.0281 44.1434C75.5267 43.6761 75.8364 43.0458 75.8995 42.37C75.9625 41.6941 75.7747 41.0187 75.3709 40.4693C75.0994 40.1243 74.7558 39.8411 74.3636 39.6388C73.9713 39.4366 73.5395 39.3201 73.0975 39.2972C72.6555 39.2744 72.2137 39.3457 71.8022 39.5064C71.3907 39.6671 71.019 39.9134 70.7125 40.2286L70.7244 40.2299Z" fill="#6A6B6E"/>
<path opacity="0.94" d="M99.9249 38.2963C100.238 38.2872 100.554 38.2793 100.864 38.2727C100.917 40.7576 100.894 43.2451 100.877 45.7313L99.9199 45.6998C99.925 43.232 99.9161 40.7642 99.9249 38.2963Z" fill="#6A6B6E"/>
<path opacity="0.94" d="M0.536269 38.4681C1.73304 38.2671 2.96283 38.4726 4.02847 39.0517C4.24358 39.2167 4.421 39.4255 4.54894 39.6642C4.67689 39.9029 4.75243 40.166 4.77055 40.4361C4.78867 40.7061 4.74896 40.9769 4.65405 41.2305C4.55914 41.484 4.4112 41.7146 4.22007 41.9067C3.44721 42.5216 2.47988 42.8417 1.49167 42.8096C1.51967 43.7822 1.51617 44.7562 1.48117 45.7314C1.16489 45.7314 0.851237 45.7314 0.534957 45.7314C0.490337 43.312 0.4864 40.8901 0.534957 38.472L0.536269 38.4681ZM1.49561 39.3513C1.49561 40.1913 1.49561 41.0318 1.49561 41.8727C2.18447 41.916 2.86869 41.7341 3.44447 41.3546C3.55398 41.2207 3.63259 41.0644 3.67474 40.8968C3.71688 40.7292 3.72152 40.5544 3.68833 40.3848C3.65514 40.2153 3.58493 40.0551 3.48269 39.9156C3.38044 39.7761 3.24866 39.6607 3.09669 39.5777C2.58151 39.4083 2.04041 39.3308 1.49823 39.3487L1.49561 39.3513Z" fill="#6A6B6E"/>
<path opacity="0.94" d="M37.2924 38.8023C37.4416 38.7481 37.6038 38.7392 37.7582 38.7767C37.9126 38.8142 38.052 38.8964 38.1584 39.0126C38.2649 39.1288 38.3334 39.2737 38.3552 39.4287C38.377 39.5836 38.351 39.7414 38.2807 39.8817C38.2104 40.022 38.0989 40.1383 37.9606 40.2156C37.8224 40.2929 37.6637 40.3277 37.5052 40.3154C37.3467 40.3031 37.1956 40.2443 37.0713 40.1467C36.9471 40.049 36.8556 39.9169 36.8084 39.7676C36.7505 39.5763 36.7681 39.3705 36.8579 39.1915C36.9476 39.0125 37.1028 38.8735 37.2924 38.8023Z" fill="#6A6B6E"/>
<path opacity="0.94" d="M105.916 38.816C106.041 38.7634 106.178 38.7437 106.313 38.7589C106.448 38.7741 106.576 38.8236 106.686 38.9026C106.795 38.9816 106.882 39.0872 106.937 39.2091C106.992 39.3311 107.014 39.4651 107 39.5979C107.053 40.3838 105.781 40.5836 105.51 39.9096C105.457 39.8126 105.426 39.7059 105.418 39.5963C105.411 39.4867 105.426 39.3767 105.465 39.2735C105.503 39.1704 105.563 39.0763 105.641 38.9974C105.719 38.9186 105.813 38.8568 105.916 38.816Z" fill="#6A6B6E"/>
<path opacity="0.94" d="M111.911 39.5959L112.827 39.6038C112.848 40.0562 112.869 40.5113 112.892 40.9624C113.208 40.9964 113.526 41.0317 113.844 41.071C113.814 41.363 113.784 41.6567 113.754 41.9523C113.464 41.9823 113.174 42.0111 112.889 42.0451C112.824 43.256 112.852 44.4681 112.861 45.679C112.526 45.6986 112.19 45.7143 111.858 45.7313C111.8 44.4799 111.845 43.2285 111.803 41.9771L111.043 41.8228C111.043 41.5757 111.035 41.3298 111.035 41.0853L111.792 40.9454C111.828 40.4969 111.867 40.0458 111.911 39.5959Z" fill="#6A6B6E"/>
<path opacity="0.94" d="M10.5088 41.804C10.7105 41.4968 10.9837 41.2444 11.3044 41.0692C11.625 40.8939 11.9833 40.8011 12.3477 40.7988C12.3079 41.0868 12.2501 41.3719 12.1747 41.6525C11.7048 42.0477 10.8303 41.9384 10.6285 42.6498C10.5259 43.6734 10.4863 44.7025 10.5101 45.7312C10.1964 45.7312 9.88281 45.7312 9.57176 45.7312C9.52751 44.1503 9.52751 42.5694 9.57176 40.9885C9.8724 40.9885 10.173 40.9965 10.4828 41.0057C10.4906 41.2744 10.4984 41.5379 10.5088 41.804Z" fill="#6A6B6E"/>
<path opacity="0.94" d="M26.7322 41.6524C27.1508 41.3299 27.5706 40.8594 28.1542 40.9255C28.714 40.9109 29.0864 41.3801 29.4745 41.7092C29.823 41.4205 30.2057 41.1759 30.614 40.981C30.8076 40.9324 31.0095 40.926 31.2058 40.9623C31.4022 40.9987 31.5884 41.0768 31.752 41.1915C31.9155 41.3062 32.0525 41.4547 32.1536 41.6271C32.2548 41.7994 32.3178 41.9915 32.3383 42.1904C32.4241 43.3918 32.3383 44.5959 32.37 45.8L31.3731 45.8489C31.3111 44.703 31.4325 43.5491 31.3071 42.4124C31.3216 41.9961 30.8635 41.8467 30.5215 41.8758C30.2446 41.9213 29.9935 42.0657 29.8147 42.2822C29.6358 42.4986 29.5412 42.7726 29.5485 43.0534C29.4824 43.9786 29.5405 44.9038 29.497 45.8383H28.5424C28.4513 44.6633 28.6348 43.4684 28.4288 42.3066C28.384 41.8771 27.8717 41.8454 27.5363 41.8863C27.2908 41.952 27.0747 42.0986 26.9228 42.3025C26.7709 42.5064 26.6921 42.7556 26.6992 43.0098C26.6306 43.9562 26.6913 44.9052 26.6609 45.8515C26.3256 45.8383 25.9929 45.8264 25.6602 45.8105C25.6663 44.2403 25.6663 42.6706 25.6602 41.1012C25.9784 41.1012 26.2965 41.1012 26.6161 41.1012L26.7322 41.6524Z" fill="#6A6B6E"/>
<path opacity="0.94" d="M52.2545 41.6562C52.6755 41.3335 53.0924 40.8626 53.6757 40.9248C54.2351 40.9115 54.6125 41.3824 55.0031 41.7117C55.3503 41.4233 55.7314 41.1785 56.1379 40.983C56.3317 40.9334 56.534 40.9264 56.7308 40.9623C56.9276 40.9983 57.1143 41.0764 57.2783 41.1912C57.4422 41.3061 57.5796 41.4551 57.6808 41.628C57.7821 41.8009 57.845 41.9937 57.8652 42.1932C57.9509 43.3954 57.8652 44.6056 57.8968 45.8105L56.8967 45.8515C56.861 44.5712 56.9415 43.2856 56.799 42.0093C56.2395 41.8466 55.5059 41.7937 55.2459 42.4471C55.0321 43.563 54.9581 44.7013 55.0256 45.8356H54.0662C53.9937 44.7114 54.1138 43.5779 53.9963 42.4577C53.9369 41.5623 52.5356 41.758 52.3429 42.5C52.1892 43.6092 52.138 44.7302 52.1899 45.8488L51.187 45.8105C51.1932 44.2366 51.1932 42.6644 51.187 41.0941C51.5063 41.0941 51.827 41.0941 52.1463 41.102C52.174 41.2409 52.2268 41.5173 52.2545 41.6562Z" fill="#6A6B6E"/>
<path opacity="0.94" d="M16.9661 41.7666C17.2044 41.498 17.499 41.2832 17.8295 41.1369C18.16 40.9907 18.5188 40.9164 18.8812 40.9193C19.2435 40.9221 19.601 41.0019 19.9292 41.1533C20.2573 41.3047 20.5483 41.5241 20.7824 41.7964C21.163 42.3044 21.3737 42.9164 21.3851 43.5475C20.0086 43.598 18.6295 43.5164 17.253 43.6083C17.4911 44.1147 17.7662 44.7041 18.3821 44.8336C18.7487 44.9101 19.1287 44.8989 19.4901 44.8009C19.8515 44.7028 20.1836 44.5208 20.4587 44.2702C20.6587 44.4593 20.8534 44.6471 21.0548 44.8374C20.6255 45.3722 20.0046 45.725 19.3195 45.8235C18.6343 45.922 17.9368 45.7587 17.3701 45.3672C17.0989 45.1602 16.8727 44.9018 16.7049 44.6072C16.5371 44.3126 16.4311 43.9879 16.3931 43.6522C16.3552 43.3165 16.3862 42.9768 16.4841 42.6531C16.5821 42.3294 16.7451 42.0284 16.9634 41.7679L16.9661 41.7666ZM17.4267 42.7095C18.3816 42.8006 19.3432 42.8006 20.2981 42.7095C20.1485 42.4415 19.9277 42.2187 19.6592 42.0649C19.3908 41.9111 19.0848 41.8322 18.7742 41.8366C18.4935 41.8576 18.2228 41.9487 17.9878 42.1012C17.7527 42.2537 17.5609 42.4626 17.4306 42.7082L17.4267 42.7095Z" fill="#6A6B6E"/>
<path opacity="0.94" d="M37.1416 41.0798C37.4597 41.0655 37.7728 41.0525 38.0985 41.0396C38.1254 42.6043 38.1254 44.1682 38.0985 45.7313L37.1429 45.6872C37.1479 44.1509 37.1492 42.6147 37.1416 41.0798Z" fill="#6A6B6E"/>
<path opacity="0.94" d="M42.6401 41.0875C42.9893 41.0707 43.3398 41.0538 43.6889 41.0396C43.7775 42.1131 43.611 43.2048 43.8084 44.268C43.8929 44.4605 44.0371 44.6231 44.2212 44.7335C44.4054 44.8438 44.6204 44.8965 44.8369 44.8843C45.0533 44.8721 45.2605 44.7956 45.4301 44.6653C45.5996 44.535 45.7232 44.3573 45.7838 44.1566C45.8702 43.1259 45.8957 42.0912 45.8603 41.0577C46.2014 41.0577 46.5425 41.0577 46.885 41.0577C46.9367 42.1513 46.9156 43.2469 46.8218 44.3379C46.6992 44.7742 46.4304 45.1592 46.0573 45.433C45.6842 45.7068 45.2278 45.8539 44.759 45.8515C44.2902 45.8492 43.8353 45.6974 43.4652 45.4199C43.0951 45.1424 42.8305 44.7547 42.7126 44.3172C42.5729 43.2462 42.6791 42.1662 42.6401 41.0875Z" fill="#6A6B6E"/>
<path opacity="0.94" d="M81.4249 41.0447C81.7442 41.0447 82.0676 41.0447 82.3896 41.0447C82.363 42.1177 82.4007 43.1913 82.5023 44.2601C82.5868 44.4536 82.7311 44.6171 82.9156 44.7284C83.1 44.8396 83.3155 44.8931 83.5327 44.8814C83.7498 44.8698 83.9579 44.7936 84.1285 44.6634C84.2991 44.5332 84.4238 44.3552 84.4855 44.1538C84.588 43.1288 84.6136 42.098 84.562 41.0694C84.9028 41.059 85.2436 41.0486 85.5858 41.0396C85.6681 42.2059 85.6349 43.3771 85.4865 44.5373C85.3329 44.9075 85.073 45.2276 84.7373 45.4599C84.4016 45.6922 84.0041 45.827 83.5917 45.8485C83.1793 45.87 82.7692 45.7773 82.4095 45.5813C82.0499 45.3852 81.7557 45.094 81.5617 44.742C81.344 43.5211 81.298 42.2775 81.4249 41.0447Z" fill="#6A6B6E"/>
<path opacity="0.94" d="M89.9282 43.1304C89.9451 42.5508 90.1867 41.9993 90.6037 41.5884C91.0207 41.1775 91.5817 40.9382 92.1723 40.9192C92.8911 40.9668 93.5623 41.2884 94.0426 41.8154C94.0426 41.5552 94.0598 41.3029 94.0704 41.048C94.3788 41.0393 94.6881 41.0328 94.9983 41.0284C95.046 42.5893 95.0473 44.1502 94.9983 45.711L94.0704 45.6941C94.0598 45.421 94.0506 45.1478 94.0466 44.876C93.8211 45.1578 93.5379 45.3903 93.2153 45.5583C92.8928 45.7263 92.5379 45.8262 92.1736 45.8515C91.8397 45.8299 91.5138 45.7409 91.2166 45.5899C90.9194 45.4389 90.6572 45.2292 90.4465 44.9741C90.2358 44.719 90.0811 44.4238 89.9922 44.1072C89.9032 43.7906 89.8819 43.4594 89.9295 43.1343L89.9282 43.1304ZM92.0278 41.9416C91.763 42.0351 91.5285 42.1966 91.3489 42.4093C91.1693 42.6219 91.0511 42.878 91.0067 43.1508C90.9623 43.4236 90.9933 43.703 91.0964 43.9601C91.1995 44.2171 91.3711 44.4422 91.5931 44.612C91.8151 44.7819 92.0794 44.8902 92.3586 44.9256C92.6377 44.961 92.9215 44.9223 93.1802 44.8135C93.439 44.7046 93.6632 44.5297 93.8296 44.3069C93.9959 44.084 94.0984 43.8215 94.1261 43.5466C94.1485 43.288 94.1048 43.028 93.999 42.7902C93.8933 42.5523 93.7286 42.3441 93.5202 42.1843C93.3117 42.0246 93.066 41.9184 92.8052 41.8753C92.5443 41.8322 92.2767 41.8537 92.0265 41.9376L92.0278 41.9416Z" fill="#6A6B6E"/>
<path opacity="0.94" d="M105.661 41.0901C106.012 41.0711 106.366 41.0542 106.721 41.0396C106.77 42.6026 106.775 44.1682 106.721 45.7313L105.668 45.6704C105.679 44.1423 105.683 42.6169 105.661 41.0901Z" fill="#6A6B6E"/>
<path opacity="0.94" d="M117.752 41.0409C118.117 41.0409 118.488 41.0539 118.859 41.0644C119.411 41.8978 119.956 42.7391 120.547 43.5503C120.944 42.7142 121.324 41.8769 121.727 41.0487C122.07 41.0487 122.414 41.0396 122.76 41.0396C121.927 43.0021 120.953 44.9018 120.098 46.8539C119.953 47.2444 119.741 47.6067 119.469 47.9241C119.15 47.9764 118.83 47.9921 118.513 48.017C118.91 46.8512 119.612 45.8111 119.968 44.6349C119.438 43.3239 118.33 42.3361 117.752 41.0409Z" fill="#6A6B6E"/>
<path d="M84.0782 0.0426202C87.0343 0.00857972 89.9895 0.00857972 92.9439 0.0426202C92.9634 2.46648 92.9634 4.89076 92.9439 7.31549C89.9877 7.36873 87.0321 7.36873 84.0768 7.31549C84.0306 4.89163 84.031 2.46735 84.0782 0.0426202Z" fill="#F20000"/>
<path d="M0.5 2.85819C5.27632 2.79018 10.0526 2.85033 14.8369 2.8281C17.5934 2.66727 20.3581 2.94639 23.0243 3.65467C24.7079 4.24936 26.1031 5.44634 26.933 7.008C27.8108 8.76044 28.1079 10.7405 27.7821 12.6684C27.4793 14.673 26.4015 16.4844 24.7743 17.7233C23.5641 18.6416 22.1402 19.2472 20.6322 19.485C21.706 19.8325 22.6985 20.3883 23.551 21.1198C24.5619 22.1349 25.4149 23.2918 26.0825 24.5529C27.4769 27.2719 28.9629 29.9491 30.3016 32.6969C27.1466 32.7767 23.9915 32.6969 20.8365 32.7388C20.3642 32.7008 19.7101 32.8591 19.5098 32.3006C18.0662 29.6431 16.6028 26.9934 15.154 24.3397C14.654 23.2116 13.9474 22.1839 13.0697 21.3081C12.1398 20.7119 11.026 20.459 9.92527 20.594C9.89741 24.6301 9.94517 28.6661 9.90404 32.7035C6.7729 32.7414 3.63645 32.7558 0.505304 32.7035C0.505304 22.755 0.505304 12.8084 0.505304 2.86342L0.5 2.85819ZM9.94915 8.84947C9.88679 10.8753 9.92394 12.9038 9.92527 14.9258C12.2378 14.9179 14.6459 15.1874 16.8615 14.3699C17.304 14.151 17.6827 13.8248 17.9621 13.4219C18.2414 13.0189 18.4122 12.5526 18.4584 12.0667C18.5045 11.5808 18.4246 11.0913 18.226 10.6443C18.0274 10.1973 17.7168 9.80735 17.3233 9.51124C16.493 9.08084 15.5665 8.86274 14.6286 8.87693C13.0657 8.83508 11.5041 8.87563 9.94384 8.84424L9.94915 8.84947Z" fill="#F20000"/>
<path d="M28.7063 16.9249C29.4828 14.4438 30.9766 12.2397 33.0046 10.5827C35.0326 8.92576 37.5068 7.88779 40.1242 7.59595C41.8355 10.0308 43.56 12.4566 45.2607 14.8954C45.5734 15.3394 45.9105 15.7664 46.2702 16.1743C46.3007 13.5446 46.2105 10.9122 46.3127 8.28508C47.9991 8.86362 49.5509 9.76928 50.8765 10.9486C52.2021 12.128 53.2746 13.5571 54.0307 15.1517C54.9538 17.0715 55.4003 19.1802 55.3331 21.3037C55.266 23.4272 54.6872 25.5044 53.6446 27.3638C52.602 29.2232 51.1255 30.8113 49.3371 31.9969C47.5488 33.1826 45.4999 33.9317 43.3597 34.1824C41.2518 31.3643 39.38 28.375 37.1977 25.6118C37.1288 28.2403 37.2495 30.8713 37.1381 33.5011C33.837 32.3408 31.1176 29.9695 29.5466 26.8814C27.9755 23.7933 27.674 20.2267 28.705 16.9249H28.7063ZM37.1778 16.3626C37.1778 19.379 37.1778 22.3971 37.1778 25.417C40.2131 25.417 43.2469 25.4366 46.2822 25.4026C46.2627 22.3941 46.2627 19.3864 46.2822 16.3796C43.2522 16.2802 40.2144 16.3142 37.1792 16.3626H37.1778Z" fill="#F20000"/>
<path d="M65.5058 10.1969C68.0876 8.84506 71.052 8.3776 73.9328 8.86806C76.3952 9.2024 78.6264 10.4751 80.1473 12.4129C81.3946 14.1816 82.0305 16.2993 81.9608 18.4521C81.9396 23.2932 81.9966 28.1368 81.9329 32.9792C79.0166 32.9687 76.1002 32.9687 73.1838 32.9792C73.1348 28.5563 73.1838 24.1307 73.1626 19.7078C73.237 18.5426 72.8915 17.3889 72.1869 16.4504C71.8979 16.1596 71.5479 15.9347 71.1613 15.7913C70.7748 15.648 70.3611 15.5898 69.9493 15.6207C68.741 15.545 67.5446 15.8931 66.5716 16.6033C66.3001 16.8778 66.0876 17.2036 65.9469 17.561C65.8061 17.9184 65.74 18.3002 65.7524 18.6834C65.6941 23.4474 65.8147 28.2139 65.6967 32.9779C62.7737 32.9779 59.8507 32.9779 56.9277 32.9779C56.9277 24.9909 56.9277 17.0048 56.9277 9.01962C59.746 9.04053 62.5643 9.04706 65.3839 9.01962C65.4316 9.40769 65.47 9.80229 65.5058 10.1969Z" fill="#F20000"/>
<path d="M84.1169 9.03955C87.0501 9.05398 89.9833 9.06053 92.9164 9.03955C93.0031 14.2461 92.9244 19.4565 92.9524 24.6656C92.9377 27.4774 92.9844 30.2879 92.9284 33.0997C89.9819 33.0892 87.0381 33.0997 84.0916 33.0997C83.9929 26.8977 84.0783 20.6919 84.0503 14.4913C84.0876 12.6736 83.9836 10.8546 84.1169 9.03955Z" fill="#F20000"/>
<path d="M94.611 9.04858C98.0795 9.04858 101.549 9.02377 105.018 9.05641C106.124 10.8608 107.239 12.6613 108.401 14.4331C109.594 12.6705 110.647 10.8151 111.841 9.05119C115.325 9.0451 118.809 9.0451 122.295 9.05119C121.119 10.9914 119.677 12.7645 118.394 14.6368C117.027 16.6161 115.541 18.5185 114.243 20.5422C117.194 24.6916 120.221 28.7927 123.126 32.9747C119.581 32.9616 116.035 33.0047 112.49 32.9538C111.105 30.8647 109.844 28.696 108.389 26.6579C107.019 28.7313 105.705 30.8438 104.38 32.9459C100.777 33.0008 97.1714 32.9459 93.5688 32.976C96.0881 29.5056 98.6445 26.056 101.176 22.5973C101.705 21.9311 102.199 21.2387 102.657 20.5227C102.557 20.2704 102.423 20.0324 102.259 19.815C100.014 16.7376 97.8343 13.6158 95.6014 10.5318C95.254 10.0474 94.9239 9.55256 94.611 9.04858Z" fill="#F20000"/>
</svg>
